<mxfile host="app.diagrams.net" agent="Mozilla/5.0 (Macintosh; Intel Mac OS X 10.15; rv:131.0) Gecko/20100101 Firefox/131.0" version="24.7.17">
  <diagram id="R2lEEEUBdFMjLlhIrx00" name="Page-1">
    <mxGraphModel dx="1100" dy="533" grid="1" gridSize="10" guides="1" tooltips="1" connect="1" arrows="1" fold="1" page="1" pageScale="1" pageWidth="1169" pageHeight="827" background="#000000" math="0" shadow="0" extFonts="Permanent Marker^https://fonts.googleapis.com/css?family=Permanent+Marker">
      <root>
        <mxCell id="0" />
        <mxCell id="1" parent="0" />
        <mxCell id="C-vyLk0tnHw3VtMMgP7b-13" value="direccion" style="shape=table;startSize=30;container=1;collapsible=1;childLayout=tableLayout;fixedRows=1;rowLines=0;fontStyle=1;align=center;resizeLast=1;labelBackgroundColor=none;fillColor=#09555B;strokeColor=#BAC8D3;fontColor=#EEEEEE;" parent="1" vertex="1">
          <mxGeometry x="39" y="160" width="250" height="210" as="geometry" />
        </mxCell>
        <mxCell id="C-vyLk0tnHw3VtMMgP7b-14" value="" style="shape=partialRectangle;collapsible=0;dropTarget=0;pointerEvents=0;fillColor=none;points=[[0,0.5],[1,0.5]];portConstraint=eastwest;top=0;left=0;right=0;bottom=1;labelBackgroundColor=none;strokeColor=#BAC8D3;fontColor=#EEEEEE;" parent="C-vyLk0tnHw3VtMMgP7b-13" vertex="1">
          <mxGeometry y="30" width="250" height="30" as="geometry" />
        </mxCell>
        <mxCell id="C-vyLk0tnHw3VtMMgP7b-15" value="PK" style="shape=partialRectangle;overflow=hidden;connectable=0;fillColor=none;top=0;left=0;bottom=0;right=0;fontStyle=1;labelBackgroundColor=none;strokeColor=#BAC8D3;fontColor=#EEEEEE;" parent="C-vyLk0tnHw3VtMMgP7b-14" vertex="1">
          <mxGeometry width="30" height="30" as="geometry">
            <mxRectangle width="30" height="30" as="alternateBounds" />
          </mxGeometry>
        </mxCell>
        <mxCell id="C-vyLk0tnHw3VtMMgP7b-16" value="id" style="shape=partialRectangle;overflow=hidden;connectable=0;fillColor=none;top=0;left=0;bottom=0;right=0;align=left;spacingLeft=6;fontStyle=5;labelBackgroundColor=none;strokeColor=#BAC8D3;fontColor=#EEEEEE;" parent="C-vyLk0tnHw3VtMMgP7b-14" vertex="1">
          <mxGeometry x="30" width="220" height="30" as="geometry">
            <mxRectangle width="220" height="30" as="alternateBounds" />
          </mxGeometry>
        </mxCell>
        <mxCell id="mubPbXYN-bH1iADb0i43-182" style="shape=partialRectangle;collapsible=0;dropTarget=0;pointerEvents=0;fillColor=none;points=[[0,0.5],[1,0.5]];portConstraint=eastwest;top=0;left=0;right=0;bottom=1;labelBackgroundColor=none;strokeColor=#BAC8D3;fontColor=#EEEEEE;" vertex="1" parent="C-vyLk0tnHw3VtMMgP7b-13">
          <mxGeometry y="60" width="250" height="30" as="geometry" />
        </mxCell>
        <mxCell id="mubPbXYN-bH1iADb0i43-183" value="FK" style="shape=partialRectangle;overflow=hidden;connectable=0;fillColor=none;top=0;left=0;bottom=0;right=0;fontStyle=0;labelBackgroundColor=none;strokeColor=#BAC8D3;fontColor=#EEEEEE;" vertex="1" parent="mubPbXYN-bH1iADb0i43-182">
          <mxGeometry width="30" height="30" as="geometry">
            <mxRectangle width="30" height="30" as="alternateBounds" />
          </mxGeometry>
        </mxCell>
        <mxCell id="mubPbXYN-bH1iADb0i43-184" value="id_socio" style="shape=partialRectangle;overflow=hidden;connectable=0;fillColor=none;top=0;left=0;bottom=0;right=0;align=left;spacingLeft=6;fontStyle=0;labelBackgroundColor=none;strokeColor=#BAC8D3;fontColor=#EEEEEE;" vertex="1" parent="mubPbXYN-bH1iADb0i43-182">
          <mxGeometry x="30" width="220" height="30" as="geometry">
            <mxRectangle width="220" height="30" as="alternateBounds" />
          </mxGeometry>
        </mxCell>
        <mxCell id="mubPbXYN-bH1iADb0i43-44" style="shape=partialRectangle;collapsible=0;dropTarget=0;pointerEvents=0;fillColor=none;points=[[0,0.5],[1,0.5]];portConstraint=eastwest;top=0;left=0;right=0;bottom=1;labelBackgroundColor=none;strokeColor=#BAC8D3;fontColor=#EEEEEE;" vertex="1" parent="C-vyLk0tnHw3VtMMgP7b-13">
          <mxGeometry y="90" width="250" height="30" as="geometry" />
        </mxCell>
        <mxCell id="mubPbXYN-bH1iADb0i43-45" value="" style="shape=partialRectangle;overflow=hidden;connectable=0;fillColor=none;top=0;left=0;bottom=0;right=0;fontStyle=0;labelBackgroundColor=none;strokeColor=#BAC8D3;fontColor=#EEEEEE;" vertex="1" parent="mubPbXYN-bH1iADb0i43-44">
          <mxGeometry width="30" height="30" as="geometry">
            <mxRectangle width="30" height="30" as="alternateBounds" />
          </mxGeometry>
        </mxCell>
        <mxCell id="mubPbXYN-bH1iADb0i43-46" value="codigo_postal Numero " style="shape=partialRectangle;overflow=hidden;connectable=0;fillColor=none;top=0;left=0;bottom=0;right=0;align=left;spacingLeft=6;fontStyle=0;labelBackgroundColor=none;strokeColor=#BAC8D3;fontColor=#EEEEEE;" vertex="1" parent="mubPbXYN-bH1iADb0i43-44">
          <mxGeometry x="30" width="220" height="30" as="geometry">
            <mxRectangle width="220" height="30" as="alternateBounds" />
          </mxGeometry>
        </mxCell>
        <mxCell id="mubPbXYN-bH1iADb0i43-51" style="shape=partialRectangle;collapsible=0;dropTarget=0;pointerEvents=0;fillColor=none;points=[[0,0.5],[1,0.5]];portConstraint=eastwest;top=0;left=0;right=0;bottom=1;labelBackgroundColor=none;strokeColor=#BAC8D3;fontColor=#EEEEEE;" vertex="1" parent="C-vyLk0tnHw3VtMMgP7b-13">
          <mxGeometry y="120" width="250" height="30" as="geometry" />
        </mxCell>
        <mxCell id="mubPbXYN-bH1iADb0i43-52" style="shape=partialRectangle;overflow=hidden;connectable=0;fillColor=none;top=0;left=0;bottom=0;right=0;fontStyle=0;labelBackgroundColor=none;strokeColor=#BAC8D3;fontColor=#EEEEEE;" vertex="1" parent="mubPbXYN-bH1iADb0i43-51">
          <mxGeometry width="30" height="30" as="geometry">
            <mxRectangle width="30" height="30" as="alternateBounds" />
          </mxGeometry>
        </mxCell>
        <mxCell id="mubPbXYN-bH1iADb0i43-53" value="calle Texto" style="shape=partialRectangle;overflow=hidden;connectable=0;fillColor=none;top=0;left=0;bottom=0;right=0;align=left;spacingLeft=6;fontStyle=0;labelBackgroundColor=none;strokeColor=#BAC8D3;fontColor=#EEEEEE;" vertex="1" parent="mubPbXYN-bH1iADb0i43-51">
          <mxGeometry x="30" width="220" height="30" as="geometry">
            <mxRectangle width="220" height="30" as="alternateBounds" />
          </mxGeometry>
        </mxCell>
        <mxCell id="mubPbXYN-bH1iADb0i43-48" style="shape=partialRectangle;collapsible=0;dropTarget=0;pointerEvents=0;fillColor=none;points=[[0,0.5],[1,0.5]];portConstraint=eastwest;top=0;left=0;right=0;bottom=1;labelBackgroundColor=none;strokeColor=#BAC8D3;fontColor=#EEEEEE;" vertex="1" parent="C-vyLk0tnHw3VtMMgP7b-13">
          <mxGeometry y="150" width="250" height="30" as="geometry" />
        </mxCell>
        <mxCell id="mubPbXYN-bH1iADb0i43-49" style="shape=partialRectangle;overflow=hidden;connectable=0;fillColor=none;top=0;left=0;bottom=0;right=0;fontStyle=0;labelBackgroundColor=none;strokeColor=#BAC8D3;fontColor=#EEEEEE;" vertex="1" parent="mubPbXYN-bH1iADb0i43-48">
          <mxGeometry width="30" height="30" as="geometry">
            <mxRectangle width="30" height="30" as="alternateBounds" />
          </mxGeometry>
        </mxCell>
        <mxCell id="mubPbXYN-bH1iADb0i43-50" value="numero Numero" style="shape=partialRectangle;overflow=hidden;connectable=0;fillColor=none;top=0;left=0;bottom=0;right=0;align=left;spacingLeft=6;fontStyle=0;labelBackgroundColor=none;strokeColor=#BAC8D3;fontColor=#EEEEEE;" vertex="1" parent="mubPbXYN-bH1iADb0i43-48">
          <mxGeometry x="30" width="220" height="30" as="geometry">
            <mxRectangle width="220" height="30" as="alternateBounds" />
          </mxGeometry>
        </mxCell>
        <mxCell id="mubPbXYN-bH1iADb0i43-54" style="shape=partialRectangle;collapsible=0;dropTarget=0;pointerEvents=0;fillColor=none;points=[[0,0.5],[1,0.5]];portConstraint=eastwest;top=0;left=0;right=0;bottom=1;labelBackgroundColor=none;strokeColor=#BAC8D3;fontColor=#EEEEEE;" vertex="1" parent="C-vyLk0tnHw3VtMMgP7b-13">
          <mxGeometry y="180" width="250" height="30" as="geometry" />
        </mxCell>
        <mxCell id="mubPbXYN-bH1iADb0i43-55" style="shape=partialRectangle;overflow=hidden;connectable=0;fillColor=none;top=0;left=0;bottom=0;right=0;fontStyle=0;labelBackgroundColor=none;strokeColor=#BAC8D3;fontColor=#EEEEEE;" vertex="1" parent="mubPbXYN-bH1iADb0i43-54">
          <mxGeometry width="30" height="30" as="geometry">
            <mxRectangle width="30" height="30" as="alternateBounds" />
          </mxGeometry>
        </mxCell>
        <mxCell id="mubPbXYN-bH1iADb0i43-56" value="piso" style="shape=partialRectangle;overflow=hidden;connectable=0;fillColor=none;top=0;left=0;bottom=0;right=0;align=left;spacingLeft=6;fontStyle=0;labelBackgroundColor=none;strokeColor=#BAC8D3;fontColor=#EEEEEE;" vertex="1" parent="mubPbXYN-bH1iADb0i43-54">
          <mxGeometry x="30" width="220" height="30" as="geometry">
            <mxRectangle width="220" height="30" as="alternateBounds" />
          </mxGeometry>
        </mxCell>
        <mxCell id="mubPbXYN-bH1iADb0i43-24" value="" style="shape=partialRectangle;collapsible=0;dropTarget=0;pointerEvents=0;fillColor=none;points=[[0,0.5],[1,0.5]];portConstraint=eastwest;top=0;left=0;right=0;bottom=0;strokeColor=#BAC8D3;labelBackgroundColor=none;fontColor=#EEEEEE;" vertex="1" parent="1">
          <mxGeometry x="409" y="280" width="250" height="30" as="geometry" />
        </mxCell>
        <mxCell id="mubPbXYN-bH1iADb0i43-25" value="" style="shape=partialRectangle;overflow=hidden;connectable=0;fillColor=none;top=0;left=0;bottom=0;right=0;labelBackgroundColor=none;strokeColor=#BAC8D3;fontColor=#EEEEEE;" vertex="1" parent="mubPbXYN-bH1iADb0i43-24">
          <mxGeometry width="30" height="30" as="geometry">
            <mxRectangle width="30" height="30" as="alternateBounds" />
          </mxGeometry>
        </mxCell>
        <mxCell id="mubPbXYN-bH1iADb0i43-47" value="" style="shape=partialRectangle;overflow=hidden;connectable=0;fillColor=none;top=0;left=0;bottom=0;right=0;labelBackgroundColor=none;strokeColor=#BAC8D3;fontColor=#EEEEEE;" vertex="1" parent="1">
          <mxGeometry x="409" y="480" width="30" height="30" as="geometry">
            <mxRectangle width="30" height="30" as="alternateBounds" />
          </mxGeometry>
        </mxCell>
        <mxCell id="mubPbXYN-bH1iADb0i43-57" value="socio" style="shape=table;startSize=30;container=1;collapsible=1;childLayout=tableLayout;fixedRows=1;rowLines=0;fontStyle=1;align=center;resizeLast=1;labelBackgroundColor=none;fillColor=#09555B;strokeColor=#BAC8D3;fontColor=#EEEEEE;" vertex="1" parent="1">
          <mxGeometry x="409" y="160" width="250" height="210" as="geometry" />
        </mxCell>
        <mxCell id="mubPbXYN-bH1iADb0i43-58" value="" style="shape=partialRectangle;collapsible=0;dropTarget=0;pointerEvents=0;fillColor=none;points=[[0,0.5],[1,0.5]];portConstraint=eastwest;top=0;left=0;right=0;bottom=1;labelBackgroundColor=none;strokeColor=#BAC8D3;fontColor=#EEEEEE;" vertex="1" parent="mubPbXYN-bH1iADb0i43-57">
          <mxGeometry y="30" width="250" height="30" as="geometry" />
        </mxCell>
        <mxCell id="mubPbXYN-bH1iADb0i43-59" value="PK" style="shape=partialRectangle;overflow=hidden;connectable=0;fillColor=none;top=0;left=0;bottom=0;right=0;fontStyle=1;labelBackgroundColor=none;strokeColor=#BAC8D3;fontColor=#EEEEEE;" vertex="1" parent="mubPbXYN-bH1iADb0i43-58">
          <mxGeometry width="30" height="30" as="geometry">
            <mxRectangle width="30" height="30" as="alternateBounds" />
          </mxGeometry>
        </mxCell>
        <mxCell id="mubPbXYN-bH1iADb0i43-60" value="id" style="shape=partialRectangle;overflow=hidden;connectable=0;fillColor=none;top=0;left=0;bottom=0;right=0;align=left;spacingLeft=6;fontStyle=5;labelBackgroundColor=none;strokeColor=#BAC8D3;fontColor=#EEEEEE;" vertex="1" parent="mubPbXYN-bH1iADb0i43-58">
          <mxGeometry x="30" width="220" height="30" as="geometry">
            <mxRectangle width="220" height="30" as="alternateBounds" />
          </mxGeometry>
        </mxCell>
        <mxCell id="mubPbXYN-bH1iADb0i43-185" style="shape=partialRectangle;collapsible=0;dropTarget=0;pointerEvents=0;fillColor=none;points=[[0,0.5],[1,0.5]];portConstraint=eastwest;top=0;left=0;right=0;bottom=1;labelBackgroundColor=none;strokeColor=#BAC8D3;fontColor=#EEEEEE;" vertex="1" parent="mubPbXYN-bH1iADb0i43-57">
          <mxGeometry y="60" width="250" height="30" as="geometry" />
        </mxCell>
        <mxCell id="mubPbXYN-bH1iADb0i43-186" style="shape=partialRectangle;overflow=hidden;connectable=0;fillColor=none;top=0;left=0;bottom=0;right=0;fontStyle=0;labelBackgroundColor=none;strokeColor=#BAC8D3;fontColor=#EEEEEE;" vertex="1" parent="mubPbXYN-bH1iADb0i43-185">
          <mxGeometry width="30" height="30" as="geometry">
            <mxRectangle width="30" height="30" as="alternateBounds" />
          </mxGeometry>
        </mxCell>
        <mxCell id="mubPbXYN-bH1iADb0i43-187" value="dni Texto NOT NULL" style="shape=partialRectangle;overflow=hidden;connectable=0;fillColor=none;top=0;left=0;bottom=0;right=0;align=left;spacingLeft=6;fontStyle=0;labelBackgroundColor=none;strokeColor=#BAC8D3;fontColor=#EEEEEE;" vertex="1" parent="mubPbXYN-bH1iADb0i43-185">
          <mxGeometry x="30" width="220" height="30" as="geometry">
            <mxRectangle width="220" height="30" as="alternateBounds" />
          </mxGeometry>
        </mxCell>
        <mxCell id="mubPbXYN-bH1iADb0i43-61" style="shape=partialRectangle;collapsible=0;dropTarget=0;pointerEvents=0;fillColor=none;points=[[0,0.5],[1,0.5]];portConstraint=eastwest;top=0;left=0;right=0;bottom=1;labelBackgroundColor=none;strokeColor=#BAC8D3;fontColor=#EEEEEE;" vertex="1" parent="mubPbXYN-bH1iADb0i43-57">
          <mxGeometry y="90" width="250" height="30" as="geometry" />
        </mxCell>
        <mxCell id="mubPbXYN-bH1iADb0i43-62" value="" style="shape=partialRectangle;overflow=hidden;connectable=0;fillColor=none;top=0;left=0;bottom=0;right=0;fontStyle=0;labelBackgroundColor=none;strokeColor=#BAC8D3;fontColor=#EEEEEE;" vertex="1" parent="mubPbXYN-bH1iADb0i43-61">
          <mxGeometry width="30" height="30" as="geometry">
            <mxRectangle width="30" height="30" as="alternateBounds" />
          </mxGeometry>
        </mxCell>
        <mxCell id="mubPbXYN-bH1iADb0i43-63" value="nombre Texto NOT NULL " style="shape=partialRectangle;overflow=hidden;connectable=0;fillColor=none;top=0;left=0;bottom=0;right=0;align=left;spacingLeft=6;fontStyle=0;labelBackgroundColor=none;strokeColor=#BAC8D3;fontColor=#EEEEEE;" vertex="1" parent="mubPbXYN-bH1iADb0i43-61">
          <mxGeometry x="30" width="220" height="30" as="geometry">
            <mxRectangle width="220" height="30" as="alternateBounds" />
          </mxGeometry>
        </mxCell>
        <mxCell id="mubPbXYN-bH1iADb0i43-64" style="shape=partialRectangle;collapsible=0;dropTarget=0;pointerEvents=0;fillColor=none;points=[[0,0.5],[1,0.5]];portConstraint=eastwest;top=0;left=0;right=0;bottom=1;labelBackgroundColor=none;strokeColor=#BAC8D3;fontColor=#EEEEEE;" vertex="1" parent="mubPbXYN-bH1iADb0i43-57">
          <mxGeometry y="120" width="250" height="30" as="geometry" />
        </mxCell>
        <mxCell id="mubPbXYN-bH1iADb0i43-65" style="shape=partialRectangle;overflow=hidden;connectable=0;fillColor=none;top=0;left=0;bottom=0;right=0;fontStyle=0;labelBackgroundColor=none;strokeColor=#BAC8D3;fontColor=#EEEEEE;" vertex="1" parent="mubPbXYN-bH1iADb0i43-64">
          <mxGeometry width="30" height="30" as="geometry">
            <mxRectangle width="30" height="30" as="alternateBounds" />
          </mxGeometry>
        </mxCell>
        <mxCell id="mubPbXYN-bH1iADb0i43-66" value="apellidos Texto NOT NULL " style="shape=partialRectangle;overflow=hidden;connectable=0;fillColor=none;top=0;left=0;bottom=0;right=0;align=left;spacingLeft=6;fontStyle=0;labelBackgroundColor=none;strokeColor=#BAC8D3;fontColor=#EEEEEE;" vertex="1" parent="mubPbXYN-bH1iADb0i43-64">
          <mxGeometry x="30" width="220" height="30" as="geometry">
            <mxRectangle width="220" height="30" as="alternateBounds" />
          </mxGeometry>
        </mxCell>
        <mxCell id="mubPbXYN-bH1iADb0i43-67" style="shape=partialRectangle;collapsible=0;dropTarget=0;pointerEvents=0;fillColor=none;points=[[0,0.5],[1,0.5]];portConstraint=eastwest;top=0;left=0;right=0;bottom=1;labelBackgroundColor=none;strokeColor=#BAC8D3;fontColor=#EEEEEE;" vertex="1" parent="mubPbXYN-bH1iADb0i43-57">
          <mxGeometry y="150" width="250" height="30" as="geometry" />
        </mxCell>
        <mxCell id="mubPbXYN-bH1iADb0i43-68" style="shape=partialRectangle;overflow=hidden;connectable=0;fillColor=none;top=0;left=0;bottom=0;right=0;fontStyle=0;labelBackgroundColor=none;strokeColor=#BAC8D3;fontColor=#EEEEEE;" vertex="1" parent="mubPbXYN-bH1iADb0i43-67">
          <mxGeometry width="30" height="30" as="geometry">
            <mxRectangle width="30" height="30" as="alternateBounds" />
          </mxGeometry>
        </mxCell>
        <mxCell id="mubPbXYN-bH1iADb0i43-69" value="telefono Numero NOT NULL " style="shape=partialRectangle;overflow=hidden;connectable=0;fillColor=none;top=0;left=0;bottom=0;right=0;align=left;spacingLeft=6;fontStyle=0;labelBackgroundColor=none;strokeColor=#BAC8D3;fontColor=#EEEEEE;" vertex="1" parent="mubPbXYN-bH1iADb0i43-67">
          <mxGeometry x="30" width="220" height="30" as="geometry">
            <mxRectangle width="220" height="30" as="alternateBounds" />
          </mxGeometry>
        </mxCell>
        <mxCell id="mubPbXYN-bH1iADb0i43-70" style="shape=partialRectangle;collapsible=0;dropTarget=0;pointerEvents=0;fillColor=none;points=[[0,0.5],[1,0.5]];portConstraint=eastwest;top=0;left=0;right=0;bottom=1;labelBackgroundColor=none;strokeColor=#BAC8D3;fontColor=#EEEEEE;" vertex="1" parent="mubPbXYN-bH1iADb0i43-57">
          <mxGeometry y="180" width="250" height="30" as="geometry" />
        </mxCell>
        <mxCell id="mubPbXYN-bH1iADb0i43-71" style="shape=partialRectangle;overflow=hidden;connectable=0;fillColor=none;top=0;left=0;bottom=0;right=0;fontStyle=0;labelBackgroundColor=none;strokeColor=#BAC8D3;fontColor=#EEEEEE;" vertex="1" parent="mubPbXYN-bH1iADb0i43-70">
          <mxGeometry width="30" height="30" as="geometry">
            <mxRectangle width="30" height="30" as="alternateBounds" />
          </mxGeometry>
        </mxCell>
        <mxCell id="mubPbXYN-bH1iADb0i43-72" value="fecha_nacimiento Date NOT NULL " style="shape=partialRectangle;overflow=hidden;connectable=0;fillColor=none;top=0;left=0;bottom=0;right=0;align=left;spacingLeft=6;fontStyle=0;labelBackgroundColor=none;strokeColor=#BAC8D3;fontColor=#EEEEEE;" vertex="1" parent="mubPbXYN-bH1iADb0i43-70">
          <mxGeometry x="30" width="220" height="30" as="geometry">
            <mxRectangle width="220" height="30" as="alternateBounds" />
          </mxGeometry>
        </mxCell>
        <mxCell id="mubPbXYN-bH1iADb0i43-89" value="pelicula" style="shape=table;startSize=30;container=1;collapsible=1;childLayout=tableLayout;fixedRows=1;rowLines=0;fontStyle=1;align=center;resizeLast=1;labelBackgroundColor=none;fillColor=#09555B;strokeColor=#BAC8D3;fontColor=#EEEEEE;" vertex="1" parent="1">
          <mxGeometry x="829" y="520" width="250" height="180" as="geometry" />
        </mxCell>
        <mxCell id="mubPbXYN-bH1iADb0i43-90" value="" style="shape=partialRectangle;collapsible=0;dropTarget=0;pointerEvents=0;fillColor=none;points=[[0,0.5],[1,0.5]];portConstraint=eastwest;top=0;left=0;right=0;bottom=1;labelBackgroundColor=none;strokeColor=#BAC8D3;fontColor=#EEEEEE;" vertex="1" parent="mubPbXYN-bH1iADb0i43-89">
          <mxGeometry y="30" width="250" height="30" as="geometry" />
        </mxCell>
        <mxCell id="mubPbXYN-bH1iADb0i43-91" value="PK" style="shape=partialRectangle;overflow=hidden;connectable=0;fillColor=none;top=0;left=0;bottom=0;right=0;fontStyle=1;labelBackgroundColor=none;strokeColor=#BAC8D3;fontColor=#EEEEEE;" vertex="1" parent="mubPbXYN-bH1iADb0i43-90">
          <mxGeometry width="30" height="30" as="geometry">
            <mxRectangle width="30" height="30" as="alternateBounds" />
          </mxGeometry>
        </mxCell>
        <mxCell id="mubPbXYN-bH1iADb0i43-92" value="id" style="shape=partialRectangle;overflow=hidden;connectable=0;fillColor=none;top=0;left=0;bottom=0;right=0;align=left;spacingLeft=6;fontStyle=5;labelBackgroundColor=none;strokeColor=#BAC8D3;fontColor=#EEEEEE;" vertex="1" parent="mubPbXYN-bH1iADb0i43-90">
          <mxGeometry x="30" width="220" height="30" as="geometry">
            <mxRectangle width="220" height="30" as="alternateBounds" />
          </mxGeometry>
        </mxCell>
        <mxCell id="mubPbXYN-bH1iADb0i43-142" style="shape=partialRectangle;collapsible=0;dropTarget=0;pointerEvents=0;fillColor=none;points=[[0,0.5],[1,0.5]];portConstraint=eastwest;top=0;left=0;right=0;bottom=1;labelBackgroundColor=none;strokeColor=#BAC8D3;fontColor=#EEEEEE;" vertex="1" parent="mubPbXYN-bH1iADb0i43-89">
          <mxGeometry y="60" width="250" height="30" as="geometry" />
        </mxCell>
        <mxCell id="mubPbXYN-bH1iADb0i43-143" style="shape=partialRectangle;overflow=hidden;connectable=0;fillColor=none;top=0;left=0;bottom=0;right=0;fontStyle=1;labelBackgroundColor=none;strokeColor=#BAC8D3;fontColor=#EEEEEE;" vertex="1" parent="mubPbXYN-bH1iADb0i43-142">
          <mxGeometry width="30" height="30" as="geometry">
            <mxRectangle width="30" height="30" as="alternateBounds" />
          </mxGeometry>
        </mxCell>
        <mxCell id="mubPbXYN-bH1iADb0i43-144" value="titulo Texto NOT NULL" style="shape=partialRectangle;overflow=hidden;connectable=0;fillColor=none;top=0;left=0;bottom=0;right=0;align=left;spacingLeft=6;fontStyle=0;labelBackgroundColor=none;strokeColor=#BAC8D3;fontColor=#EEEEEE;" vertex="1" parent="mubPbXYN-bH1iADb0i43-142">
          <mxGeometry x="30" width="220" height="30" as="geometry">
            <mxRectangle width="220" height="30" as="alternateBounds" />
          </mxGeometry>
        </mxCell>
        <mxCell id="mubPbXYN-bH1iADb0i43-93" style="shape=partialRectangle;collapsible=0;dropTarget=0;pointerEvents=0;fillColor=none;points=[[0,0.5],[1,0.5]];portConstraint=eastwest;top=0;left=0;right=0;bottom=1;labelBackgroundColor=none;strokeColor=#BAC8D3;fontColor=#EEEEEE;" vertex="1" parent="mubPbXYN-bH1iADb0i43-89">
          <mxGeometry y="90" width="250" height="30" as="geometry" />
        </mxCell>
        <mxCell id="mubPbXYN-bH1iADb0i43-94" value="" style="shape=partialRectangle;overflow=hidden;connectable=0;fillColor=none;top=0;left=0;bottom=0;right=0;fontStyle=0;labelBackgroundColor=none;strokeColor=#BAC8D3;fontColor=#EEEEEE;" vertex="1" parent="mubPbXYN-bH1iADb0i43-93">
          <mxGeometry width="30" height="30" as="geometry">
            <mxRectangle width="30" height="30" as="alternateBounds" />
          </mxGeometry>
        </mxCell>
        <mxCell id="mubPbXYN-bH1iADb0i43-95" value="genero Texto NOT NULL" style="shape=partialRectangle;overflow=hidden;connectable=0;fillColor=none;top=0;left=0;bottom=0;right=0;align=left;spacingLeft=6;fontStyle=0;labelBackgroundColor=none;strokeColor=#BAC8D3;fontColor=#EEEEEE;" vertex="1" parent="mubPbXYN-bH1iADb0i43-93">
          <mxGeometry x="30" width="220" height="30" as="geometry">
            <mxRectangle width="220" height="30" as="alternateBounds" />
          </mxGeometry>
        </mxCell>
        <mxCell id="mubPbXYN-bH1iADb0i43-96" style="shape=partialRectangle;collapsible=0;dropTarget=0;pointerEvents=0;fillColor=none;points=[[0,0.5],[1,0.5]];portConstraint=eastwest;top=0;left=0;right=0;bottom=1;labelBackgroundColor=none;strokeColor=#BAC8D3;fontColor=#EEEEEE;" vertex="1" parent="mubPbXYN-bH1iADb0i43-89">
          <mxGeometry y="120" width="250" height="30" as="geometry" />
        </mxCell>
        <mxCell id="mubPbXYN-bH1iADb0i43-97" style="shape=partialRectangle;overflow=hidden;connectable=0;fillColor=none;top=0;left=0;bottom=0;right=0;fontStyle=0;labelBackgroundColor=none;strokeColor=#BAC8D3;fontColor=#EEEEEE;" vertex="1" parent="mubPbXYN-bH1iADb0i43-96">
          <mxGeometry width="30" height="30" as="geometry">
            <mxRectangle width="30" height="30" as="alternateBounds" />
          </mxGeometry>
        </mxCell>
        <mxCell id="mubPbXYN-bH1iADb0i43-98" value="director Texto NOT NULL" style="shape=partialRectangle;overflow=hidden;connectable=0;fillColor=none;top=0;left=0;bottom=0;right=0;align=left;spacingLeft=6;fontStyle=0;labelBackgroundColor=none;strokeColor=#BAC8D3;fontColor=#EEEEEE;" vertex="1" parent="mubPbXYN-bH1iADb0i43-96">
          <mxGeometry x="30" width="220" height="30" as="geometry">
            <mxRectangle width="220" height="30" as="alternateBounds" />
          </mxGeometry>
        </mxCell>
        <mxCell id="mubPbXYN-bH1iADb0i43-99" style="shape=partialRectangle;collapsible=0;dropTarget=0;pointerEvents=0;fillColor=none;points=[[0,0.5],[1,0.5]];portConstraint=eastwest;top=0;left=0;right=0;bottom=1;labelBackgroundColor=none;strokeColor=#BAC8D3;fontColor=#EEEEEE;" vertex="1" parent="mubPbXYN-bH1iADb0i43-89">
          <mxGeometry y="150" width="250" height="30" as="geometry" />
        </mxCell>
        <mxCell id="mubPbXYN-bH1iADb0i43-100" style="shape=partialRectangle;overflow=hidden;connectable=0;fillColor=none;top=0;left=0;bottom=0;right=0;fontStyle=0;labelBackgroundColor=none;strokeColor=#BAC8D3;fontColor=#EEEEEE;" vertex="1" parent="mubPbXYN-bH1iADb0i43-99">
          <mxGeometry width="30" height="30" as="geometry">
            <mxRectangle width="30" height="30" as="alternateBounds" />
          </mxGeometry>
        </mxCell>
        <mxCell id="mubPbXYN-bH1iADb0i43-101" value="Sinopsis Texto NOT NULL" style="shape=partialRectangle;overflow=hidden;connectable=0;fillColor=none;top=0;left=0;bottom=0;right=0;align=left;spacingLeft=6;fontStyle=0;labelBackgroundColor=none;strokeColor=#BAC8D3;fontColor=#EEEEEE;" vertex="1" parent="mubPbXYN-bH1iADb0i43-99">
          <mxGeometry x="30" width="220" height="30" as="geometry">
            <mxRectangle width="220" height="30" as="alternateBounds" />
          </mxGeometry>
        </mxCell>
        <mxCell id="mubPbXYN-bH1iADb0i43-106" value="copias" style="shape=table;startSize=30;container=1;collapsible=1;childLayout=tableLayout;fixedRows=1;rowLines=0;fontStyle=1;align=center;resizeLast=1;labelBackgroundColor=none;fillColor=#09555B;strokeColor=#BAC8D3;fontColor=#EEEEEE;" vertex="1" parent="1">
          <mxGeometry x="829" y="400" width="250" height="90" as="geometry" />
        </mxCell>
        <mxCell id="mubPbXYN-bH1iADb0i43-107" value="" style="shape=partialRectangle;collapsible=0;dropTarget=0;pointerEvents=0;fillColor=none;points=[[0,0.5],[1,0.5]];portConstraint=eastwest;top=0;left=0;right=0;bottom=1;labelBackgroundColor=none;strokeColor=#BAC8D3;fontColor=#EEEEEE;" vertex="1" parent="mubPbXYN-bH1iADb0i43-106">
          <mxGeometry y="30" width="250" height="30" as="geometry" />
        </mxCell>
        <mxCell id="mubPbXYN-bH1iADb0i43-108" value="PK" style="shape=partialRectangle;overflow=hidden;connectable=0;fillColor=none;top=0;left=0;bottom=0;right=0;fontStyle=1;labelBackgroundColor=none;strokeColor=#BAC8D3;fontColor=#EEEEEE;" vertex="1" parent="mubPbXYN-bH1iADb0i43-107">
          <mxGeometry width="30" height="30" as="geometry">
            <mxRectangle width="30" height="30" as="alternateBounds" />
          </mxGeometry>
        </mxCell>
        <mxCell id="mubPbXYN-bH1iADb0i43-109" value="id" style="shape=partialRectangle;overflow=hidden;connectable=0;fillColor=none;top=0;left=0;bottom=0;right=0;align=left;spacingLeft=6;fontStyle=5;labelBackgroundColor=none;strokeColor=#BAC8D3;fontColor=#EEEEEE;" vertex="1" parent="mubPbXYN-bH1iADb0i43-107">
          <mxGeometry x="30" width="220" height="30" as="geometry">
            <mxRectangle width="220" height="30" as="alternateBounds" />
          </mxGeometry>
        </mxCell>
        <mxCell id="mubPbXYN-bH1iADb0i43-148" style="shape=partialRectangle;collapsible=0;dropTarget=0;pointerEvents=0;fillColor=none;points=[[0,0.5],[1,0.5]];portConstraint=eastwest;top=0;left=0;right=0;bottom=1;labelBackgroundColor=none;strokeColor=#BAC8D3;fontColor=#EEEEEE;" vertex="1" parent="mubPbXYN-bH1iADb0i43-106">
          <mxGeometry y="60" width="250" height="30" as="geometry" />
        </mxCell>
        <mxCell id="mubPbXYN-bH1iADb0i43-149" value="FK" style="shape=partialRectangle;overflow=hidden;connectable=0;fillColor=none;top=0;left=0;bottom=0;right=0;fontStyle=0;labelBackgroundColor=none;strokeColor=#BAC8D3;fontColor=#EEEEEE;" vertex="1" parent="mubPbXYN-bH1iADb0i43-148">
          <mxGeometry width="30" height="30" as="geometry">
            <mxRectangle width="30" height="30" as="alternateBounds" />
          </mxGeometry>
        </mxCell>
        <mxCell id="mubPbXYN-bH1iADb0i43-150" value="id_pelicula Numero NOT NULL" style="shape=partialRectangle;overflow=hidden;connectable=0;fillColor=none;top=0;left=0;bottom=0;right=0;align=left;spacingLeft=6;fontStyle=0;labelBackgroundColor=none;strokeColor=#BAC8D3;fontColor=#EEEEEE;" vertex="1" parent="mubPbXYN-bH1iADb0i43-148">
          <mxGeometry x="30" width="220" height="30" as="geometry">
            <mxRectangle width="220" height="30" as="alternateBounds" />
          </mxGeometry>
        </mxCell>
        <mxCell id="mubPbXYN-bH1iADb0i43-139" style="edgeStyle=orthogonalEdgeStyle;rounded=0;orthogonalLoop=1;jettySize=auto;html=1;exitX=1;exitY=0.5;exitDx=0;exitDy=0;entryX=0;entryY=0.5;entryDx=0;entryDy=0;strokeColor=#0B4D6A;fontFamily=Helvetica;fontSize=12;fontColor=default;labelBackgroundColor=none;startArrow=ERone;startFill=0;endArrow=ERmany;endFill=0;" edge="1" parent="1" source="mubPbXYN-bH1iADb0i43-182" target="mubPbXYN-bH1iADb0i43-58">
          <mxGeometry relative="1" as="geometry" />
        </mxCell>
        <mxCell id="mubPbXYN-bH1iADb0i43-141" style="edgeStyle=orthogonalEdgeStyle;rounded=0;orthogonalLoop=1;jettySize=auto;html=1;exitX=0;exitY=0.5;exitDx=0;exitDy=0;strokeColor=#0B4D6A;fontFamily=Helvetica;fontSize=12;fontColor=default;labelBackgroundColor=none;startArrow=ERone;startFill=0;endArrow=ERmany;endFill=0;entryX=0;entryY=0.5;entryDx=0;entryDy=0;" edge="1" parent="1" source="mubPbXYN-bH1iADb0i43-90" target="mubPbXYN-bH1iADb0i43-148">
          <mxGeometry relative="1" as="geometry">
            <mxPoint x="829" y="295" as="targetPoint" />
            <Array as="points">
              <mxPoint x="780" y="565" />
              <mxPoint x="780" y="475" />
            </Array>
          </mxGeometry>
        </mxCell>
        <mxCell id="mubPbXYN-bH1iADb0i43-154" value="estado_alquiler" style="shape=table;startSize=30;container=1;collapsible=1;childLayout=tableLayout;fixedRows=1;rowLines=0;fontStyle=1;align=center;resizeLast=1;labelBackgroundColor=none;fillColor=#09555B;strokeColor=#BAC8D3;fontColor=#EEEEEE;" vertex="1" parent="1">
          <mxGeometry x="829" y="130" width="250" height="210" as="geometry" />
        </mxCell>
        <mxCell id="mubPbXYN-bH1iADb0i43-155" value="" style="shape=partialRectangle;collapsible=0;dropTarget=0;pointerEvents=0;fillColor=none;points=[[0,0.5],[1,0.5]];portConstraint=eastwest;top=0;left=0;right=0;bottom=1;labelBackgroundColor=none;strokeColor=#BAC8D3;fontColor=#EEEEEE;" vertex="1" parent="mubPbXYN-bH1iADb0i43-154">
          <mxGeometry y="30" width="250" height="30" as="geometry" />
        </mxCell>
        <mxCell id="mubPbXYN-bH1iADb0i43-156" value="PK" style="shape=partialRectangle;overflow=hidden;connectable=0;fillColor=none;top=0;left=0;bottom=0;right=0;fontStyle=1;labelBackgroundColor=none;strokeColor=#BAC8D3;fontColor=#EEEEEE;" vertex="1" parent="mubPbXYN-bH1iADb0i43-155">
          <mxGeometry width="31" height="30" as="geometry">
            <mxRectangle width="31" height="30" as="alternateBounds" />
          </mxGeometry>
        </mxCell>
        <mxCell id="mubPbXYN-bH1iADb0i43-157" value="id" style="shape=partialRectangle;overflow=hidden;connectable=0;fillColor=none;top=0;left=0;bottom=0;right=0;align=left;spacingLeft=6;fontStyle=5;labelBackgroundColor=none;strokeColor=#BAC8D3;fontColor=#EEEEEE;" vertex="1" parent="mubPbXYN-bH1iADb0i43-155">
          <mxGeometry x="31" width="219" height="30" as="geometry">
            <mxRectangle width="219" height="30" as="alternateBounds" />
          </mxGeometry>
        </mxCell>
        <mxCell id="mubPbXYN-bH1iADb0i43-179" style="shape=partialRectangle;collapsible=0;dropTarget=0;pointerEvents=0;fillColor=none;points=[[0,0.5],[1,0.5]];portConstraint=eastwest;top=0;left=0;right=0;bottom=1;labelBackgroundColor=none;strokeColor=#BAC8D3;fontColor=#EEEEEE;" vertex="1" parent="mubPbXYN-bH1iADb0i43-154">
          <mxGeometry y="60" width="250" height="30" as="geometry" />
        </mxCell>
        <mxCell id="mubPbXYN-bH1iADb0i43-180" value="FK" style="shape=partialRectangle;overflow=hidden;connectable=0;fillColor=none;top=0;left=0;bottom=0;right=0;fontStyle=0;labelBackgroundColor=none;strokeColor=#BAC8D3;fontColor=#EEEEEE;" vertex="1" parent="mubPbXYN-bH1iADb0i43-179">
          <mxGeometry width="31" height="30" as="geometry">
            <mxRectangle width="31" height="30" as="alternateBounds" />
          </mxGeometry>
        </mxCell>
        <mxCell id="mubPbXYN-bH1iADb0i43-181" value="id_socio Numero NOT NULL" style="shape=partialRectangle;overflow=hidden;connectable=0;fillColor=none;top=0;left=0;bottom=0;right=0;align=left;spacingLeft=6;fontStyle=0;labelBackgroundColor=none;strokeColor=#BAC8D3;fontColor=#EEEEEE;" vertex="1" parent="mubPbXYN-bH1iADb0i43-179">
          <mxGeometry x="31" width="219" height="30" as="geometry">
            <mxRectangle width="219" height="30" as="alternateBounds" />
          </mxGeometry>
        </mxCell>
        <mxCell id="mubPbXYN-bH1iADb0i43-158" style="shape=partialRectangle;collapsible=0;dropTarget=0;pointerEvents=0;fillColor=none;points=[[0,0.5],[1,0.5]];portConstraint=eastwest;top=0;left=0;right=0;bottom=1;labelBackgroundColor=none;strokeColor=#BAC8D3;fontColor=#EEEEEE;" vertex="1" parent="mubPbXYN-bH1iADb0i43-154">
          <mxGeometry y="90" width="250" height="30" as="geometry" />
        </mxCell>
        <mxCell id="mubPbXYN-bH1iADb0i43-159" value="" style="shape=partialRectangle;overflow=hidden;connectable=0;fillColor=none;top=0;left=0;bottom=0;right=0;fontStyle=0;labelBackgroundColor=none;strokeColor=#BAC8D3;fontColor=#EEEEEE;" vertex="1" parent="mubPbXYN-bH1iADb0i43-158">
          <mxGeometry width="31" height="30" as="geometry">
            <mxRectangle width="31" height="30" as="alternateBounds" />
          </mxGeometry>
        </mxCell>
        <mxCell id="mubPbXYN-bH1iADb0i43-160" value="fecha_prestamo Date NOT NULL" style="shape=partialRectangle;overflow=hidden;connectable=0;fillColor=none;top=0;left=0;bottom=0;right=0;align=left;spacingLeft=6;fontStyle=0;labelBackgroundColor=none;strokeColor=#BAC8D3;fontColor=#EEEEEE;" vertex="1" parent="mubPbXYN-bH1iADb0i43-158">
          <mxGeometry x="31" width="219" height="30" as="geometry">
            <mxRectangle width="219" height="30" as="alternateBounds" />
          </mxGeometry>
        </mxCell>
        <mxCell id="mubPbXYN-bH1iADb0i43-161" style="shape=partialRectangle;collapsible=0;dropTarget=0;pointerEvents=0;fillColor=none;points=[[0,0.5],[1,0.5]];portConstraint=eastwest;top=0;left=0;right=0;bottom=1;labelBackgroundColor=none;strokeColor=#BAC8D3;fontColor=#EEEEEE;" vertex="1" parent="mubPbXYN-bH1iADb0i43-154">
          <mxGeometry y="120" width="250" height="30" as="geometry" />
        </mxCell>
        <mxCell id="mubPbXYN-bH1iADb0i43-162" value="" style="shape=partialRectangle;overflow=hidden;connectable=0;fillColor=none;top=0;left=0;bottom=0;right=0;fontStyle=0;labelBackgroundColor=none;strokeColor=#BAC8D3;fontColor=#EEEEEE;" vertex="1" parent="mubPbXYN-bH1iADb0i43-161">
          <mxGeometry width="31" height="30" as="geometry">
            <mxRectangle width="31" height="30" as="alternateBounds" />
          </mxGeometry>
        </mxCell>
        <mxCell id="mubPbXYN-bH1iADb0i43-163" value="fecha_devolucion Date" style="shape=partialRectangle;overflow=hidden;connectable=0;fillColor=none;top=0;left=0;bottom=0;right=0;align=left;spacingLeft=6;fontStyle=0;labelBackgroundColor=none;strokeColor=#BAC8D3;fontColor=#EEEEEE;" vertex="1" parent="mubPbXYN-bH1iADb0i43-161">
          <mxGeometry x="31" width="219" height="30" as="geometry">
            <mxRectangle width="219" height="30" as="alternateBounds" />
          </mxGeometry>
        </mxCell>
        <mxCell id="mubPbXYN-bH1iADb0i43-167" style="shape=partialRectangle;collapsible=0;dropTarget=0;pointerEvents=0;fillColor=none;points=[[0,0.5],[1,0.5]];portConstraint=eastwest;top=0;left=0;right=0;bottom=1;labelBackgroundColor=none;strokeColor=#BAC8D3;fontColor=#EEEEEE;" vertex="1" parent="mubPbXYN-bH1iADb0i43-154">
          <mxGeometry y="150" width="250" height="30" as="geometry" />
        </mxCell>
        <mxCell id="mubPbXYN-bH1iADb0i43-168" value="FK" style="shape=partialRectangle;overflow=hidden;connectable=0;fillColor=none;top=0;left=0;bottom=0;right=0;fontStyle=0;labelBackgroundColor=none;strokeColor=#BAC8D3;fontColor=#EEEEEE;" vertex="1" parent="mubPbXYN-bH1iADb0i43-167">
          <mxGeometry width="31" height="30" as="geometry">
            <mxRectangle width="31" height="30" as="alternateBounds" />
          </mxGeometry>
        </mxCell>
        <mxCell id="mubPbXYN-bH1iADb0i43-169" value="id_copia Numero NOT NULL" style="shape=partialRectangle;overflow=hidden;connectable=0;fillColor=none;top=0;left=0;bottom=0;right=0;align=left;spacingLeft=6;fontStyle=0;labelBackgroundColor=none;strokeColor=#BAC8D3;fontColor=#EEEEEE;" vertex="1" parent="mubPbXYN-bH1iADb0i43-167">
          <mxGeometry x="31" width="219" height="30" as="geometry">
            <mxRectangle width="219" height="30" as="alternateBounds" />
          </mxGeometry>
        </mxCell>
        <mxCell id="mubPbXYN-bH1iADb0i43-210" style="shape=partialRectangle;collapsible=0;dropTarget=0;pointerEvents=0;fillColor=none;points=[[0,0.5],[1,0.5]];portConstraint=eastwest;top=0;left=0;right=0;bottom=1;labelBackgroundColor=none;strokeColor=#BAC8D3;fontColor=#EEEEEE;" vertex="1" parent="mubPbXYN-bH1iADb0i43-154">
          <mxGeometry y="180" width="250" height="30" as="geometry" />
        </mxCell>
        <mxCell id="mubPbXYN-bH1iADb0i43-211" style="shape=partialRectangle;overflow=hidden;connectable=0;fillColor=none;top=0;left=0;bottom=0;right=0;fontStyle=0;labelBackgroundColor=none;strokeColor=#BAC8D3;fontColor=#EEEEEE;" vertex="1" parent="mubPbXYN-bH1iADb0i43-210">
          <mxGeometry width="31" height="30" as="geometry">
            <mxRectangle width="31" height="30" as="alternateBounds" />
          </mxGeometry>
        </mxCell>
        <mxCell id="mubPbXYN-bH1iADb0i43-212" value="is_alquilada boolean NOT NULL" style="shape=partialRectangle;overflow=hidden;connectable=0;fillColor=none;top=0;left=0;bottom=0;right=0;align=left;spacingLeft=6;fontStyle=0;labelBackgroundColor=none;strokeColor=#BAC8D3;fontColor=#EEEEEE;" vertex="1" parent="mubPbXYN-bH1iADb0i43-210">
          <mxGeometry x="31" width="219" height="30" as="geometry">
            <mxRectangle width="219" height="30" as="alternateBounds" />
          </mxGeometry>
        </mxCell>
        <mxCell id="mubPbXYN-bH1iADb0i43-174" style="edgeStyle=orthogonalEdgeStyle;rounded=0;orthogonalLoop=1;jettySize=auto;html=1;strokeColor=#0B4D6A;entryX=1;entryY=0.5;entryDx=0;entryDy=0;startArrow=ERmany;startFill=0;endArrow=ERone;endFill=0;exitX=0;exitY=0.5;exitDx=0;exitDy=0;" edge="1" parent="1" source="mubPbXYN-bH1iADb0i43-179" target="mubPbXYN-bH1iADb0i43-58">
          <mxGeometry relative="1" as="geometry">
            <mxPoint x="659" y="105" as="targetPoint" />
            <mxPoint x="830" y="140" as="sourcePoint" />
            <Array as="points">
              <mxPoint x="790" y="205" />
              <mxPoint x="790" y="205" />
            </Array>
          </mxGeometry>
        </mxCell>
        <mxCell id="mubPbXYN-bH1iADb0i43-195" style="edgeStyle=orthogonalEdgeStyle;rounded=0;orthogonalLoop=1;jettySize=auto;html=1;exitX=1;exitY=0.5;exitDx=0;exitDy=0;strokeColor=#0B4D6A;entryX=1;entryY=0.5;entryDx=0;entryDy=0;startArrow=ERone;startFill=0;endArrow=ERmany;endFill=0;" edge="1" parent="1" source="mubPbXYN-bH1iADb0i43-107" target="mubPbXYN-bH1iADb0i43-167">
          <mxGeometry relative="1" as="geometry">
            <mxPoint x="1110" y="255" as="targetPoint" />
            <Array as="points">
              <mxPoint x="1079" y="425" />
              <mxPoint x="1120" y="425" />
              <mxPoint x="1120" y="295" />
            </Array>
          </mxGeometry>
        </mxCell>
      </root>
    </mxGraphModel>
  </diagram>
</mxfile>
